<svg xmlns="http://www.w3.org/2000/svg" xmlns:xlink="http://www.w3.org/1999/xlink" viewBox="0 0 1040.77 1039.64"><defs><style>.cls-1{isolation:isolate;}.cls-2{opacity:0.36;mix-blend-mode:multiply;}.cls-3{fill:url(#_ÛÔÂ_Ï_Í_Â_Ì_ËÌ_ÂÚÍ_3);}.cls-4{fill:#d0d5e5;}.cls-5{fill:#f0ffef;}.cls-6{fill:#fff;}.cls-7{fill:url(#_ÛÔÂ_Ï_Í_Â_Ì_ËÌ_ÂÚÍ_);}.cls-8{fill:#1f83ef;}.cls-9{fill:#87c5ff;}.cls-10{fill:url(#_ÛÔÂ_Ï_Í_Â_Ì_ËÌ_ÂÚÍ_2);}.cls-11{fill:url(#_ÛÔÂ_Ï_Í_Â_Ì_ËÌ_ÂÚÍ_3-2);}.cls-12{fill:url(#_ÛÔÂ_Ï_Í_Â_Ì_ËÌ_ÂÚÍ_4);}.cls-13{fill:url(#_ÛÔÂ_Ï_Í_Â_Ì_ËÌ_ÂÚÍ_3-3);}.cls-14{fill:url(#_ÛÔÂ_Ï_Í_Â_Ì_ËÌ_ÂÚÍ_5);}.cls-15{fill:url(#_ÛÔÂ_Ï_Í_Â_Ì_ËÌ_ÂÚÍ_6);}.cls-16{fill:url(#_ÛÔÂ_Ï_Í_Â_Ì_ËÌ_ÂÚÍ_7);}.cls-17{fill:url(#_ÛÔÂ_Ï_Í_Â_Ì_ËÌ_ÂÚÍ_8);}.cls-18{fill:url(#_ÛÔÂ_Ï_Í_Â_Ì_ËÌ_ÂÚÍ_3-4);}.cls-19{fill:url(#_ÛÔÂ_Ï_Í_Â_Ì_ËÌ_ÂÚÍ_9);}.cls-20{fill:url(#_ÛÔÂ_Ï_Í_Â_Ì_ËÌ_ÂÚÍ_10);}</style><radialGradient id="_ÛÔÂ_Ï_Í_Â_Ì_ËÌ_ÂÚÍ_3" cx="68.76" cy="2639.12" r="519.81" gradientTransform="translate(-476.3 -1924.5) rotate(-20.7)" gradientUnits="userSpaceOnUse"><stop offset="0.57" stop-color="#1a1900"/><stop offset="0.8" stop-color="#1a1900"/><stop offset="1" stop-color="#1a1900"/></radialGradient><radialGradient id="_ÛÔÂ_Ï_Í_Â_Ì_ËÌ_ÂÚÍ_" cx="106.99" cy="2327.81" r="200.13" gradientTransform="translate(-476.3 -1924.5) rotate(-20.7)" gradientUnits="userSpaceOnUse"><stop offset="0.57" stop-color="#1a0000"/><stop offset="0.8" stop-color="#1a0000"/><stop offset="1" stop-color="#1a0000"/></radialGradient><radialGradient id="_ÛÔÂ_Ï_Í_Â_Ì_ËÌ_ÂÚÍ_2" cx="-178.03" cy="2295.16" r="50.86" xlink:href="#_ÛÔÂ_Ï_Í_Â_Ì_ËÌ_ÂÚÍ_"/><radialGradient id="_ÛÔÂ_Ï_Í_Â_Ì_ËÌ_ÂÚÍ_3-2" cx="399.18" cy="2389.13" r="54.71" xlink:href="#_ÛÔÂ_Ï_Í_Â_Ì_ËÌ_ÂÚÍ_"/><radialGradient id="_ÛÔÂ_Ï_Í_Â_Ì_ËÌ_ÂÚÍ_4" cx="50.45" cy="2668.57" r="226.05" xlink:href="#_ÛÔÂ_Ï_Í_Â_Ì_ËÌ_ÂÚÍ_"/><radialGradient id="_ÛÔÂ_Ï_Í_Â_Ì_ËÌ_ÂÚÍ_3-3" cx="-23.59" cy="2549.94" r="64.1" xlink:href="#_ÛÔÂ_Ï_Í_Â_Ì_ËÌ_ÂÚÍ_3"/><radialGradient id="_ÛÔÂ_Ï_Í_Â_Ì_ËÌ_ÂÚÍ_5" cx="-341.26" cy="2699.61" r="117.25" xlink:href="#_ÛÔÂ_Ï_Í_Â_Ì_ËÌ_ÂÚÍ_"/><radialGradient id="_ÛÔÂ_Ï_Í_Â_Ì_ËÌ_ÂÚÍ_6" cx="-225.02" cy="2680.5" r="42" xlink:href="#_ÛÔÂ_Ï_Í_Â_Ì_ËÌ_ÂÚÍ_"/><radialGradient id="_ÛÔÂ_Ï_Í_Â_Ì_ËÌ_ÂÚÍ_7" cx="-2.12" cy="3037.2" r="109.7" xlink:href="#_ÛÔÂ_Ï_Í_Â_Ì_ËÌ_ÂÚÍ_"/><radialGradient id="_ÛÔÂ_Ï_Í_Â_Ì_ËÌ_ÂÚÍ_8" cx="22.57" cy="2923.34" r="37.94" xlink:href="#_ÛÔÂ_Ï_Í_Â_Ì_ËÌ_ÂÚÍ_"/><radialGradient id="_ÛÔÂ_Ï_Í_Â_Ì_ËÌ_ÂÚÍ_3-4" cx="157.92" cy="2873.99" r="82.21" xlink:href="#_ÛÔÂ_Ï_Í_Â_Ì_ËÌ_ÂÚÍ_3"/><radialGradient id="_ÛÔÂ_Ï_Í_Â_Ì_ËÌ_ÂÚÍ_9" cx="449.33" cy="2833.4" r="120.08" xlink:href="#_ÛÔÂ_Ï_Í_Â_Ì_ËÌ_ÂÚÍ_"/><radialGradient id="_ÛÔÂ_Ï_Í_Â_Ì_ËÌ_ÂÚÍ_10" cx="319.55" cy="2771.29" r="43.72" xlink:href="#_ÛÔÂ_Ï_Í_Â_Ì_ËÌ_ÂÚÍ_"/></defs><g class="cls-1"><g id="Layer_3" data-name="Layer 3"><g class="cls-2"><path class="cls-3" d="M704.68,1006.07c-268.11,101.31-568.66-34.4-670-302.52s34.39-568.66,302.51-670,568.66,34.39,670,302.51S972.8,904.75,704.68,1006.07ZM354.61,79.6C111.87,171.32-11,443.42,80.73,686.16s363.82,365.61,606.56,273.89,365.6-363.83,273.88-606.57S597.35-12.12,354.61,79.6Z"/></g><path class="cls-4" d="M689,990.63C426.42,1089.84,132.1,957,32.88,694.38S66.57,137.49,329.13,38.28,886,72,985.24,334.53,951.55,891.42,689,990.63ZM338.91,64.16C90.62,158-35,436.31,58.77,684.6s372.15,374,620.44,280.14,374-372.14,280.14-620.43S587.2-29.66,338.91,64.16Z"/><path class="cls-5" d="M686.27,983.44c-258.6,97.71-548.48-33.18-646.2-291.77S73.25,143.18,331.85,45.47s548.48,33.17,646.2,291.77S944.87,885.72,686.27,983.44ZM336.2,57C83.94,152.29-43.74,435.06,51.58,687.32s378.09,379.93,630.34,284.61,379.94-378.08,284.62-630.34S588.45-38.34,336.2,57Z"/><path class="cls-6" d="M684.64,979.12C428.42,1075.94,141.2,946.25,44.39,690S77.26,146.6,333.48,49.78,876.92,82.65,973.73,338.87,940.86,882.31,684.64,979.12ZM334.57,52.66C79.93,148.88-48.95,434.31,47.27,689s381.65,383.52,636.28,287.3S1067.07,594.6,970.86,340,589.2-43.56,334.57,52.66Z"/><g class="cls-2"><path class="cls-7" d="M608.5,332.6a24.5,24.5,0,0,1-3.54,1L365.62,384.93a24.56,24.56,0,0,1-21.42-5.6L229.33,278.05a24.59,24.59,0,0,1-7.82-23.42l27.07-131.08a24.59,24.59,0,1,1,48.17,10L272.58,250.59l94.85,83.64L583.17,288l46.64-92.21L568.91,71.86a24.6,24.6,0,1,1,44.15-21.7L679.38,185.1a24.65,24.65,0,0,1-.13,22L621.76,320.7A24.57,24.57,0,0,1,608.5,332.6Z"/></g><path class="cls-8" d="M592.81,317.17a13,13,0,0,1-2,.58L351.47,369a13.84,13.84,0,0,1-12.05-3.15L224.56,264.61a13.82,13.82,0,0,1-4.4-13.17l27.07-131.08a13.84,13.84,0,0,1,27.1,5.59L248.88,249.17l103.61,91.35,226.07-48.44L630,190.5,566.68,61.74a13.84,13.84,0,0,1,24.84-12.2l66.31,134.94a13.86,13.86,0,0,1-.07,12.35L600.27,310.47A13.86,13.86,0,0,1,592.81,317.17Z"/><path class="cls-9" d="M590.1,310a7,7,0,0,1-.89.26L349.86,361.53a6.13,6.13,0,0,1-5.35-1.4L229.64,258.85a6.16,6.16,0,0,1-1.95-5.86l27.06-131.08a6.15,6.15,0,0,1,12.05,2.49L240.45,252l109.87,96.87,233.44-50,54.78-108.28-65-132.2a6.15,6.15,0,0,1,11-5.42l66.31,134.94a6.16,6.16,0,0,1,0,5.49L593.41,307A6.19,6.19,0,0,1,590.1,310Z"/><path class="cls-6" d="M588.46,305.66l-.22.07L348.9,357a1.55,1.55,0,0,1-1.34-.35L232.69,255.39a1.57,1.57,0,0,1-.49-1.47l27.07-131.08a1.54,1.54,0,0,1,3,.63L235.4,253.67,349,353.85l237.87-51,56.81-112.29-66-134.26a1.53,1.53,0,0,1,.7-2.06,1.58,1.58,0,0,1,2.06.7l66.31,135a1.54,1.54,0,0,1,0,1.37L589.29,304.92A1.51,1.51,0,0,1,588.46,305.66Z"/><g class="cls-2"><path class="cls-10" d="M217.42,293.14,137,323.53a24.6,24.6,0,0,1-17.39-46L200,247.12a24.6,24.6,0,0,1,17.39,46Z"/></g><path class="cls-8" d="M201.72,277.71,121.29,308.1a13.84,13.84,0,0,1-9.78-25.89l80.43-30.39a13.84,13.84,0,1,1,9.78,25.89Z"/><path class="cls-9" d="M199,270.52l-80.44,30.39a6.15,6.15,0,0,1-4.34-11.51L194.66,259A6.15,6.15,0,1,1,199,270.52Z"/><path class="cls-6" d="M197.38,266.2l-80.44,30.39a1.53,1.53,0,1,1-1.08-2.87l80.43-30.39a1.54,1.54,0,1,1,1.09,2.87Z"/><g class="cls-2"><path class="cls-11" d="M796,180.05a21.15,21.15,0,0,1-2.41.77l-91.25,24.27a24.6,24.6,0,0,1-12.64-47.54L781,133.28a24.6,24.6,0,0,1,15,46.77Z"/></g><path class="cls-8" d="M780.3,164.62a12.47,12.47,0,0,1-1.35.43l-91.26,24.27a13.83,13.83,0,0,1-7.11-26.74l91.26-24.27a13.84,13.84,0,0,1,8.46,26.31Z"/><path class="cls-9" d="M777.57,157.43a3.82,3.82,0,0,1-.6.19l-91.25,24.27A6.15,6.15,0,0,1,682.56,170l91.25-24.27a6.15,6.15,0,0,1,3.76,11.69Z"/><path class="cls-6" d="M775.94,153.12l-.15,0-91.26,24.27a1.54,1.54,0,0,1-.79-3L775,150.2a1.54,1.54,0,0,1,.94,2.92Z"/><g class="cls-2"><path class="cls-12" d="M572.9,769.9a24.62,24.62,0,0,1-19.3-.81l-238.83-114a24.6,24.6,0,0,1-13.9-24.48L322.11,403a24.6,24.6,0,1,1,49,4.57L351.45,618.07l206.6,98.63L704,551.47l-100.16-198a24.6,24.6,0,0,1,43.9-22.2L755.44,544.15a24.61,24.61,0,0,1-3.51,27.39L582.63,763.18A24.64,24.64,0,0,1,572.9,769.9Z"/></g><path class="cls-8" d="M557.2,754.46a13.79,13.79,0,0,1-10.86-.45L307.51,640a13.82,13.82,0,0,1-7.81-13.77l21.23-227.6a13.84,13.84,0,0,1,27.56,2.57l-20.34,218,220.7,105.36L705,547.76,601.56,343.21a13.84,13.84,0,1,1,24.7-12.49L734,543.64a13.84,13.84,0,0,1-2,15.41L562.67,750.68A13.64,13.64,0,0,1,557.2,754.46Z"/><path class="cls-9" d="M554.48,747.27a6.16,6.16,0,0,1-4.83-.2l-238.83-114a6.16,6.16,0,0,1-3.47-6.12l21.24-227.61a6.15,6.15,0,1,1,12.24,1.15L320,623.81,550.77,734l163.46-185L608.42,339.74a6.15,6.15,0,1,1,11-5.56L727.09,547.11a6.14,6.14,0,0,1-.88,6.85L556.91,745.6A6.07,6.07,0,0,1,554.48,747.27Z"/><path class="cls-6" d="M552.85,743a1.5,1.5,0,0,1-1.21-.05l-238.83-114a1.53,1.53,0,0,1-.87-1.53l21.24-227.6a1.54,1.54,0,1,1,3.06.29L315.11,626.58,551.92,739.64l167.84-190-107.22-212a1.54,1.54,0,1,1,2.74-1.39L723,549.19a1.53,1.53,0,0,1-.22,1.72L553.46,742.54A1.59,1.59,0,0,1,552.85,743Z"/><g class="cls-2"><path class="cls-13" d="M405.9,548.75a24.62,24.62,0,0,1-33.15-25.54l11.64-113.34a24.6,24.6,0,0,1,48.94,5L421.69,528.24A24.62,24.62,0,0,1,405.9,548.75Z"/></g><path class="cls-4" d="M390.21,533.3a13.83,13.83,0,0,1-18.64-14.36L383.21,405.6a13.84,13.84,0,0,1,27.53,2.83L399.1,521.77A13.84,13.84,0,0,1,390.21,533.3Z"/><path class="cls-5" d="M387.5,526.11a6.16,6.16,0,0,1-8.29-6.38l11.64-113.34a6.15,6.15,0,0,1,12.24,1.26L391.45,521A6.16,6.16,0,0,1,387.5,526.11Z"/><path class="cls-6" d="M385.87,521.79a1.36,1.36,0,0,1-.7.09,1.54,1.54,0,0,1-1.37-1.68l11.64-113.34a1.54,1.54,0,0,1,3.06.32L386.86,520.51A1.53,1.53,0,0,1,385.87,521.79Z"/><g class="cls-2"><path class="cls-14" d="M211.39,860.54a24.21,24.21,0,0,1-7.93,1.57,24.6,24.6,0,0,1-25.36-23.82l-4.2-135.18L58.3,644.25a24.6,24.6,0,1,1,22.32-43.84l128.57,65.47A24.6,24.6,0,0,1,222.62,687l4.66,149.73A24.61,24.61,0,0,1,211.39,860.54Z"/></g><path class="cls-8" d="M195.69,845.11a14,14,0,0,1-4.46.88A13.83,13.83,0,0,1,177,832.59l-4.4-141.54L51.3,629.3a13.83,13.83,0,1,1,12.55-24.66L192.42,670.1A13.84,13.84,0,0,1,200,682l4.66,149.73A13.85,13.85,0,0,1,195.69,845.11Z"/><path class="cls-9" d="M193,837.91a6,6,0,0,1-2,.4,6.15,6.15,0,0,1-6.33-6l-4.55-146.09L54.78,622.45a6.15,6.15,0,1,1,5.58-11L188.93,677a6.16,6.16,0,0,1,3.36,5.29L197,832A6.14,6.14,0,0,1,193,837.91Z"/><path class="cls-6" d="M191.35,833.6a1.71,1.71,0,0,1-.5.1,1.53,1.53,0,0,1-1.58-1.49l-4.64-148.82-127.76-65a1.54,1.54,0,0,1,1.4-2.75l128.57,65.47a1.54,1.54,0,0,1,.84,1.32l4.66,149.73A1.56,1.56,0,0,1,191.35,833.6Z"/><g class="cls-2"><path class="cls-15" d="M297,675l-55.11,20.82a24.6,24.6,0,1,1-17.39-46L279.63,629A24.6,24.6,0,1,1,297,675Z"/></g><path class="cls-8" d="M281.33,659.55l-55.11,20.83a13.84,13.84,0,0,1-9.79-25.89l55.12-20.82a13.83,13.83,0,1,1,9.78,25.88Z"/><path class="cls-9" d="M278.61,652.36,223.5,673.19a6.15,6.15,0,1,1-4.35-11.51l55.11-20.82a6.15,6.15,0,1,1,4.35,11.5Z"/><path class="cls-6" d="M277,648.05l-55.11,20.82a1.54,1.54,0,0,1-1.09-2.87l55.11-20.83a1.54,1.54,0,0,1,1.09,2.88Z"/><g class="cls-2"><path class="cls-16" d="M725.24,952.34a24.54,24.54,0,0,1-20.75-1.57l-105.37-59.2L518.39,988a24.6,24.6,0,0,1-37.72-31.58l93.84-112.06a24.6,24.6,0,0,1,30.9-5.65l123.18,69.21a24.6,24.6,0,0,1-3.35,44.45Z"/></g><path class="cls-8" d="M709.55,936.9a13.83,13.83,0,0,1-11.68-.87L584.71,872.44,498.25,975.69A13.83,13.83,0,1,1,477,957.93l93.83-112.06a13.84,13.84,0,0,1,17.38-3.18L711.43,911.9a13.84,13.84,0,0,1-1.88,25Z"/><path class="cls-9" d="M706.83,929.71a6.13,6.13,0,0,1-5.19-.38L582.91,862.62,492.36,970.76a6.15,6.15,0,1,1-9.43-7.9l93.83-112.05a6.15,6.15,0,0,1,7.73-1.42L707.66,918.6a6.15,6.15,0,0,1-.83,11.11Z"/><path class="cls-6" d="M705.19,925.4a1.47,1.47,0,0,1-1.29-.1L581.84,856.72l-93,111.08a1.53,1.53,0,0,1-2.16.19,1.55,1.55,0,0,1-.2-2.17L580.3,853.77a1.52,1.52,0,0,1,1.93-.35l123.17,69.2a1.54,1.54,0,0,1,.59,2.1A1.52,1.52,0,0,1,705.19,925.4Z"/><g class="cls-2"><path class="cls-17" d="M595.07,846.62a24.58,24.58,0,0,1-31.7-14.31l-16.32-43.19a24.6,24.6,0,1,1,46-17.39l16.32,43.19A24.59,24.59,0,0,1,595.07,846.62Z"/></g><path class="cls-8" d="M579.38,831.19a13.84,13.84,0,0,1-17.84-8.05l-16.32-43.2a13.84,13.84,0,0,1,25.89-9.78l16.32,43.2A13.83,13.83,0,0,1,579.38,831.19Z"/><path class="cls-9" d="M576.66,824a6.14,6.14,0,0,1-7.92-3.58l-16.33-43.19a6.15,6.15,0,0,1,11.51-4.35l16.32,43.19A6.15,6.15,0,0,1,576.66,824Z"/><path class="cls-6" d="M575,819.68a1.53,1.53,0,0,1-2-.89L556.73,775.6a1.55,1.55,0,0,1,.89-2,1.53,1.53,0,0,1,2,.9l16.33,43.19A1.53,1.53,0,0,1,575,819.68Z"/><g class="cls-2"><path class="cls-18" d="M643.42,794.32a24.6,24.6,0,0,1-27.63-38.74L721.14,629A24.6,24.6,0,0,1,759,660.43L653.61,787A24.56,24.56,0,0,1,643.42,794.32Z"/></g><path class="cls-4" d="M627.71,778.89a13.84,13.84,0,0,1-15.54-21.8L717.53,630.48a13.83,13.83,0,1,1,21.27,17.69L633.45,774.79A13.78,13.78,0,0,1,627.71,778.89Z"/><path class="cls-5" d="M625,771.69a6.15,6.15,0,0,1-6.91-9.68L723.43,635.39a6.15,6.15,0,0,1,9.46,7.87L627.54,769.88A6.12,6.12,0,0,1,625,771.69Z"/><path class="cls-6" d="M623.35,767.38a1.54,1.54,0,0,1-1.72-2.42L727,638.34a1.54,1.54,0,0,1,2.36,2L624,766.93A1.44,1.44,0,0,1,623.35,767.38Z"/><g class="cls-2"><path class="cls-19" d="M937.63,717.19A24.6,24.6,0,0,1,906.88,705L840.57,570.07a24.61,24.61,0,0,1,3.87-27.39l113-124.4a24.6,24.6,0,1,1,36.42,33.08l-101.76,112L951,683.32a24.6,24.6,0,0,1-11.23,32.92C939.09,716.59,938.36,716.91,937.63,717.19Z"/></g><path class="cls-8" d="M922,701.75a13.85,13.85,0,0,1-17.3-6.85L838.34,560a13.83,13.83,0,0,1,2.18-15.4l113-124.4A13.84,13.84,0,0,1,974,438.75L867.33,556.19,929.49,682.7a13.84,13.84,0,0,1-6.32,18.52C922.77,701.41,922.36,701.59,922,701.75Z"/><path class="cls-9" d="M919.24,694.55a6.15,6.15,0,0,1-7.69-3l-66.31-135a6.14,6.14,0,0,1,1-6.84l113-124.4a6.15,6.15,0,1,1,9.1,8.27L858.12,554.89l64.47,131.2a6.15,6.15,0,0,1-2.81,8.23Z"/><path class="cls-6" d="M917.61,690.24a1.55,1.55,0,0,1-1.92-.76l-66.31-135a1.54,1.54,0,0,1,.24-1.71l113-124.4a1.54,1.54,0,1,1,2.28,2.06L852.6,554.11l65.85,134a1.54,1.54,0,0,1-.7,2.06Z"/><g class="cls-2"><path class="cls-20" d="M838.52,581a24.46,24.46,0,0,1-11.5,1.41l-55.18-6.38a24.6,24.6,0,0,1,5.65-48.87l55.18,6.38A24.6,24.6,0,0,1,838.52,581Z"/></g><path class="cls-8" d="M822.84,565.58a13.89,13.89,0,0,1-6.47.8L761.19,560a13.84,13.84,0,1,1,3.18-27.49l55.18,6.38a13.84,13.84,0,0,1,3.29,26.7Z"/><path class="cls-9" d="M820.13,558.38a6,6,0,0,1-2.88.36l-55.18-6.39a6.15,6.15,0,1,1,1.41-12.21l55.18,6.38a6.15,6.15,0,0,1,1.47,11.86Z"/><path class="cls-6" d="M818.5,554.07a1.58,1.58,0,0,1-.72.09l-55.18-6.39a1.54,1.54,0,1,1,.36-3l55.18,6.38a1.54,1.54,0,0,1,.36,3Z"/></g></g></svg>