<?xml version="1.0" encoding="UTF-8" standalone="no"?>
<!-- Created with Inkscape (http://www.inkscape.org/) -->

<svg
   width="12.075475mm"
   height="14.88133mm"
   viewBox="0 0 45.639647 56.244466"
   version="1.1"
   id="svg1"
   inkscape:version="1.3 (0e150ed, 2023-07-21)"
   sodipodi:docname="ListShopSave.svg"
   inkscape:export-filename="ListShopSave.svg"
   inkscape:export-xdpi="96"
   inkscape:export-ydpi="96"
   xmlns:inkscape="http://www.inkscape.org/namespaces/inkscape"
   xmlns:sodipodi="http://sodipodi.sourceforge.net/DTD/sodipodi-0.dtd"
   xmlns="http://www.w3.org/2000/svg"
   xmlns:svg="http://www.w3.org/2000/svg">
  <sodipodi:namedview
     id="namedview1"
     pagecolor="#ffffff"
     bordercolor="#000000"
     borderopacity="0.25"
     inkscape:showpageshadow="false"
     inkscape:pageopacity="0.0"
     inkscape:pagecheckerboard="0"
     inkscape:deskcolor="#d1d1d1"
     inkscape:document-units="px"
     showborder="true"
     showguides="true"
     borderlayer="true"
     showgrid="true"
     shape-rendering="crispEdges"
     inkscape:zoom="3.504367"
     inkscape:cx="-1189.3731"
     inkscape:cy="178.06354"
     inkscape:window-width="1472"
     inkscape:window-height="891"
     inkscape:window-x="0"
     inkscape:window-y="37"
     inkscape:window-maximized="0"
     inkscape:current-layer="layer1">
    <inkscape:grid
       type="axonomgrid"
       id="grid1"
       units="px"
       originx="-664.2103"
       originy="-60.287165"
       spacingx="0"
       spacingy="26.458331"
       empcolor="#0099e5"
       empopacity="0.30196078"
       color="#0099e5"
       opacity="0.14901961"
       empspacing="5"
       dotted="false"
       gridanglex="30"
       gridanglez="30"
       visible="true" />
    <sodipodi:guide
       position="-1603.6681,613.95427"
       orientation="1,0"
       id="guide182"
       inkscape:locked="false" />
  </sodipodi:namedview>
  <defs
     id="defs1">
    <linearGradient
       id="swatch44"
       inkscape:swatch="solid">
      <stop
         style="stop-color:#ff0001;stop-opacity:1;"
         offset="0"
         id="stop44" />
    </linearGradient>
    <rect
       x="68.740669"
       y="145.52063"
       width="435.35757"
       height="119.06233"
       id="rect382" />
    <rect
       x="68.740669"
       y="224.89552"
       width="343.70334"
       height="119.06233"
       id="rect383" />
    <rect
       x="22.913557"
       y="171.97893"
       width="205.49062"
       height="137.66354"
       id="rect384" />
    <rect
       x="22.913557"
       y="171.97893"
       width="205.49062"
       height="137.66354"
       id="rect385" />
    <rect
       x="68.740669"
       y="145.52063"
       width="435.35757"
       height="119.06233"
       id="rect386" />
    <rect
       x="68.740669"
       y="224.89552"
       width="343.70334"
       height="119.06233"
       id="rect387" />
  </defs>
  <g
     inkscape:label="Layer 1"
     inkscape:groupmode="layer"
     id="layer1"
     transform="translate(-664.21114,-60.287241)">
    <path
       style="fill:#bc0000;fill-opacity:1;stroke:none;stroke-width:0.0553197"
       d="m 670.42971,78.786191 16.59974,-9.450585 16.45283,9.499557 -16.4039,9.548521 z"
       id="path255"
       inkscape:export-filename="ListShopSaveFavicon.svg"
       inkscape:export-xdpi="22.311512"
       inkscape:export-ydpi="22.311512" />
    <path
       style="opacity:0.415873;fill:none;stroke-width:0.0553197"
       d="m 674.36003,79.59447 12.67757,-7.322249 12.66054,7.323164 -12.66564,7.326664 z"
       id="path256" />
    <path
       style="opacity:0.415873;fill:#00006c;stroke:none;stroke-width:0.0553197"
       d="m 674.27511,79.582603 12.77204,-7.280384 12.61519,7.280384 -12.6779,7.343139 z"
       id="path257" />
    <path
       style="opacity:0.415873;fill:#a81111;fill-opacity:1;stroke:none;stroke-width:0.0553197"
       d="m 674.25621,79.555496 -1.15796,-0.697694 13.94645,-8.046633 v 1.484447 L 674.27756,79.5772 Z"
       id="path258" />
    <path
       style="fill:#ed4b4b;fill-opacity:1;stroke:none;stroke-width:0.0553197"
       d="m 699.63702,79.547726 1.293,-0.718331 -13.90375,-8.045347 0.0159,1.500517 z"
       id="path259" />
    <path
       style="opacity:0.415873;fill:#000000;fill-opacity:0.752941;stroke:none;stroke-width:0.0553197"
       d="m 686.99266,72.252233 1.33317,0.756106 -12.71456,7.3024 -1.29334,-0.776007 z"
       id="path260" />
    <path
       style="opacity:0.415873;fill:#387cb0;fill-opacity:0.768627;stroke:none;stroke-width:0.0229357"
       d="m 681.27412,83.61656 -5.67817,-3.284467 6.32778,-3.634541 c 3.48032,-1.998996 6.3427,-3.637908 6.36087,-3.642019 0.0179,-0.004 2.57725,1.46084 5.68692,3.255451 4.44144,2.563153 5.64767,3.268736 5.62466,3.290036 -0.0477,0.04435 -12.56308,7.285184 -12.60525,7.292907 -0.0212,0.004 -2.59382,-1.470909 -5.71681,-3.277367 z"
       id="path261" />
    <path
       style="opacity:0.415873;fill:#2b79da;fill-opacity:0.85098;stroke:none;stroke-width:0.0229357"
       d="m 686.86053,86.81505 c -0.063,-0.03613 -0.58942,-0.336595 -1.16969,-0.667655 -1.47273,-0.84024 -2.13209,-1.219986 -5.42433,-3.124122 -2.26892,-1.3123 -3.72056,-2.151738 -4.18926,-2.422556 -0.25424,-0.146895 -0.46068,-0.268525 -0.45876,-0.270282 0,-0.002 0.48349,-0.27888 1.07006,-0.615827 0.58657,-0.336947 1.31421,-0.755031 1.61698,-0.929067 3.30622,-1.900655 9.17459,-5.265895 9.63149,-5.523229 l 0.34247,-0.192903 0.0933,0.04548 c 0.22785,0.111076 6.60317,3.77814 9.53132,5.482372 0.82589,0.480673 1.56852,0.922318 1.63528,0.972437 0.0484,0.03633 0.22951,-0.0723 -3.02289,1.812795 -5.2562,3.046544 -9.5097,5.500113 -9.53257,5.498781 -0.007,-2.65e-4 -0.0603,-0.0301 -0.12338,-0.06623 z"
       id="path262" />
    <path
       style="fill:#2061b1;fill-opacity:0.85098;stroke:none;stroke-width:0.0229357"
       d="m 674.98605,79.92494 c -0.46619,-0.281697 -0.60633,-0.376584 -0.58485,-0.396108 0.0159,-0.01412 2.85098,-1.633827 6.30113,-3.599352 3.45008,-1.965524 6.289,-3.583547 6.30876,-3.595612 0.0272,-0.01664 0.18284,0.06298 0.6465,0.330669 0.33591,0.19393 0.60361,0.359619 0.59492,0.368204 -0.0192,0.01856 -12.63879,7.267351 -12.64741,7.26456 0,-0.0013 -0.28188,-0.168619 -0.61905,-0.372361 z"
       id="path263" />
    <path
       style="fill:#2061b1;fill-opacity:0.85098;stroke:none;stroke-width:0.100352"
       d="m 673.72453,79.181735 -0.52763,-0.32382 6.84978,-3.945341 c 3.76737,-2.169943 6.88366,-3.96338 6.92503,-3.98541 0.0411,-0.02201 0.0752,0.247947 0.0752,0.599943 v 0.640004 l -6.09635,3.501422 c -3.35303,1.925787 -6.23185,3.576931 -6.39739,3.669219 -0.29481,0.16431 -0.31205,0.161062 -0.82868,-0.156017 z"
       id="path264" />
    <path
       style="fill:#dc2f2f;fill-opacity:0.658824;stroke:none;stroke-width:0.0553197"
       d="m 670.40671,78.767721 v 1.502307 l 16.63454,9.578308 -0.009,-1.493198 z"
       id="path265" />
    <path
       style="opacity:0.415873;fill:#b80410;fill-opacity:0.552941;stroke:none;stroke-width:0.0553197"
       d="m 687.01752,89.822812 16.51707,-9.500372 -0.0272,-1.492912 -16.48989,9.513942 z"
       id="path266" />
    <path
       style="fill:#aa6363;fill-opacity:0.497159;stroke:none;stroke-width:0.0553197"
       d="m 671.78463,80.998091 v 14.654058 l 15.20484,8.778491 V 89.778415 Z"
       id="path267" />
    <path
       style="fill:#f6b6b6;fill-opacity:0.505682;stroke:none;stroke-width:0.0553197"
       d="M 702.25478,81.04276 V 95.696818 L 687.05,104.47531 V 89.823084 Z"
       id="path268" />
    <path
       style="opacity:0.415873;fill:#550f1a;fill-opacity:0.32549;stroke:none;stroke-width:0.0196416"
       d="m 687.05318,89.450299 c 0,-0.187381 -0.007,-0.504519 -0.0126,-0.704761 -0.0119,-0.349563 -0.0113,-0.364075 0.0245,-0.364075 0.0206,0 3.30775,-1.904036 7.30476,-4.231188 3.99701,-2.327159 7.45518,-4.339494 7.68489,-4.471857 l 0.41759,-0.240661 -0.007,0.747819 -0.007,0.747818 -0.19643,0.102425 c -0.108,0.05635 -1.25707,0.714923 -2.55346,1.463524 -2.87299,1.659079 -3.18523,1.839784 -3.4471,1.994952 -0.20743,0.122956 -0.91572,0.530891 -1.08026,0.622225 -0.12821,0.07116 -7.62861,4.382299 -8.04819,4.625977 l -0.0835,0.04846 z"
       id="path269" />
    <path
       style="opacity:0.415873;fill:#550f1a;fill-opacity:0.32549;stroke:none;stroke-width:0.0553197"
       d="m 687.05325,89.620642 -0.009,1.685179 15.21088,-8.782002 v -1.463663 z"
       id="path270" />
    <path
       style="opacity:0.415873;fill:#0084de;fill-opacity:0.963068;stroke:none;stroke-width:0.0553197"
       d="m 685.77636,102.28333 v -8.782004 l -3.80277,-2.195505 v 7.318331 1.463668 z"
       id="path271" />
    <path
       style="opacity:0.415873;fill:#ffffff;fill-opacity:1;stroke:none;stroke-width:0.0553197"
       d="m 681.97359,100.08782 -1.26755,0.73184 5.07032,2.92732 v -1.46365 z"
       id="path272" />
    <path
       style="opacity:0.415873;fill:#3d3d3d;fill-opacity:0.32549;stroke:none;stroke-width:0.0553197"
       d="m 681.97359,91.305821 -1.26755,-0.648683 v 10.162522 l 1.26755,-0.73184 z"
       id="path273" />
    <path
       style="opacity:0.415873;fill:#bc0000;fill-opacity:0.415686;stroke:none;stroke-width:0.0553197"
       d="m 681.97359,100.08782 v -1.463668 l -1.26755,0.731835 v 1.463673 z"
       id="path274" />
    <path
       style="opacity:0.415873;fill:#db2f2f;fill-opacity:0.27451;stroke:none;stroke-width:0.0553197"
       d="m 680.70604,99.355987 -8.87301,-5.122833 -0.0484,1.418995 8.92141,5.167511 z"
       id="path275" />
    <path
       style="opacity:0.415873;fill:#db2f2f;fill-opacity:0.27451;stroke:none;stroke-width:0.0553197"
       d="m 686.98947,104.43064 0.0544,-1.41548 -1.26755,-0.73183 v 1.46365 z"
       id="path276" />
    <path
       style="opacity:0.415873;fill:#a70e20;fill-opacity:0.662745;stroke:none;stroke-width:0.0553197"
       d="m 686.98947,104.43064 15.26531,-8.733815 v -1.463671 l -15.21088,8.782006 z"
       id="path277" />
    <path
       style="fill:#ce000c;fill-opacity:1;stroke:none;stroke-width:0.023327"
       d="m 687.0506,89.113219 c 0,-0.266218 -0.007,-0.510273 -0.007,-0.542353 0,-0.123924 0.008,-0.186612 0.0305,-0.186612 0.0133,0 0.36734,-0.200659 0.78731,-0.445908 0.41991,-0.245255 0.83173,-0.48292 0.91513,-0.528159 0.0834,-0.04521 0.16819,-0.09651 0.18847,-0.11394 0.0199,-0.01743 0.0424,-0.03169 0.0491,-0.03169 0.0166,0 0.41109,-0.227289 0.48554,-0.279523 0.0318,-0.02254 0.0819,-0.04826 0.11078,-0.05721 0.0292,-0.0089 0.0524,-0.02486 0.0524,-0.03533 0,-0.01047 0.0186,-0.02506 0.0411,-0.03242 0.0225,-0.0074 0.0828,-0.03978 0.13412,-0.07206 0.051,-0.03229 0.12801,-0.07442 0.1705,-0.09368 0.0424,-0.01922 0.10893,-0.05761 0.14777,-0.08531 0.0391,-0.02764 0.11436,-0.07328 0.1678,-0.101384 0.0861,-0.04528 0.25079,-0.139808 0.69197,-0.397109 0.0705,-0.04117 0.23323,-0.136049 0.36151,-0.210882 0.12834,-0.07483 0.29368,-0.170979 0.3674,-0.213673 0.0738,-0.04269 0.19451,-0.112965 0.26829,-0.156176 0.0738,-0.04322 0.23913,-0.139198 0.3674,-0.213321 0.12828,-0.07412 0.29104,-0.16846 0.36157,-0.209649 0.0705,-0.04117 0.23329,-0.135525 0.36157,-0.209649 0.12828,-0.07412 0.29103,-0.16844 0.36157,-0.209589 0.0705,-0.04117 0.23322,-0.136056 0.36157,-0.210882 0.12828,-0.07483 0.29362,-0.170986 0.3674,-0.213673 0.19743,-0.114278 0.3739,-0.216841 0.63563,-0.369504 0.12828,-0.07483 0.29362,-0.170986 0.3674,-0.213673 0.0738,-0.04269 0.1971,-0.114357 0.27413,-0.159258 l 0.27989,-0.16329 c 0.077,-0.04488 0.20035,-0.116711 0.27413,-0.159556 0.0737,-0.04289 0.23906,-0.139145 0.3674,-0.213972 0.12828,-0.07483 0.29362,-0.170986 0.36741,-0.213673 0.0737,-0.04269 0.19709,-0.114357 0.27406,-0.159265 0.077,-0.04488 0.20034,-0.116704 0.27406,-0.159557 0.0738,-0.04283 0.23912,-0.139138 0.3674,-0.213971 0.12834,-0.07483 0.29368,-0.170979 0.3674,-0.213673 0.0738,-0.04269 0.19716,-0.114357 0.27413,-0.159258 0.077,-0.04488 0.20027,-0.116711 0.27406,-0.159557 0.0738,-0.04289 0.23912,-0.139139 0.3674,-0.213972 0.12835,-0.07483 0.29362,-0.170986 0.3674,-0.213672 0.0738,-0.04269 0.19716,-0.114358 0.27413,-0.159266 l 0.27989,-0.163289 c 0.077,-0.04488 0.20035,-0.116863 0.27413,-0.159908 0.0738,-0.04303 0.23906,-0.138906 0.36734,-0.213023 0.12834,-0.07412 0.29368,-0.170125 0.3674,-0.213329 0.17289,-0.101218 0.3792,-0.221568 0.54825,-0.319756 0.0737,-0.04283 0.23906,-0.139106 0.36741,-0.213892 0.12827,-0.07479 0.32775,-0.189708 0.44324,-0.255379 l 0.21002,-0.119402 v 0.129181 c 0,0.07105 -0.007,0.402107 -0.007,0.73568 l -0.007,0.606506 -0.24807,0.13996 c -0.13644,0.07698 -0.29097,0.163084 -0.34334,0.191338 -0.0524,0.02824 -0.10574,0.06026 -0.1186,0.07116 -0.0133,0.01087 -0.0438,0.02758 -0.0685,0.03706 -0.0799,0.0305 -0.91055,0.512236 -0.92825,0.538349 -0.009,0.01386 -0.0172,0.0171 -0.0172,0.0072 0,-0.01578 -0.10879,0.04283 -0.14034,0.07581 -0.007,0.0067 -0.0431,0.02963 -0.0817,0.05091 -0.0385,0.02128 -0.18542,0.10436 -0.32656,0.18461 -0.14114,0.08025 -0.32484,0.1826 -0.40818,0.227455 -0.0834,0.04488 -2.97269,1.67019 -6.42066,3.611855 -3.44789,1.941665 -6.27428,3.530299 -6.28078,3.530299 -0.007,0 -0.0133,-0.217816 -0.0146,-0.484027 z"
       id="path278" />
    <path
       style="opacity:0.415873;fill:#b9030f;fill-opacity:0.611765;stroke:none;stroke-width:0.0553197"
       d="m 702.46109,79.459926 1.02119,-0.624763 0.0524,1.487277 -1.08682,0.608853 z"
       id="path279" />
    <path
       style="opacity:0.415873;fill:#3f90c8;fill-opacity:0.65098;stroke:none;stroke-width:0.0553197"
       d="m 679.38705,89.822812 -6.28641,-3.639824 v 5.771402 l 6.34018,3.742435 z"
       id="path280" />
    <path
       style="opacity:0.415873;fill:#493739;fill-opacity:0.494118;stroke:none;stroke-width:0.0553197"
       d="m 673.10064,86.182988 1.25939,0.742754 0.008,4.380079 -1.26986,0.648569 z"
       id="path281" />
    <path
       style="opacity:0.415873;fill:#ffffff;fill-opacity:0.997159;stroke:none;stroke-width:0.0553197"
       d="m 674.36818,91.305821 5.07032,2.927333 v 1.463671 l -6.34025,-3.742435 z"
       id="path282" />
    <path
       style="opacity:0.415873;fill:#3f90c8;fill-opacity:0.65098;stroke:none;stroke-width:0.0553197"
       d="m 688.36289,93.481975 6.28648,-3.639825 v 5.771402 l -6.34018,3.742435 z"
       id="path283" />
    <path
       style="opacity:0.415873;fill:#493739;fill-opacity:0.494118;stroke:none;stroke-width:0.0553197"
       d="m 694.64937,89.84215 -1.25945,0.742754 -0.008,4.380086 1.26987,0.648562 z"
       id="path284" />
    <path
       style="opacity:0.415873;fill:#ffffff;fill-opacity:0.997159;stroke:none;stroke-width:0.0553197"
       d="m 693.38176,94.96499 -5.07031,2.927327 v 1.46367 l 6.34024,-3.742435 z"
       id="path285" />
    <path
       style="opacity:0.415873;fill:#3f90c8;fill-opacity:0.65098;stroke:none;stroke-width:0.0553197"
       d="m 695.21321,89.540048 6.28648,-3.639825 v 5.771402 l -6.34025,3.742428 z"
       id="path286" />
    <path
       style="opacity:0.415873;fill:#493739;fill-opacity:0.494118;stroke:none;stroke-width:0.0553197"
       d="m 701.49969,85.900223 -1.25939,0.742754 -0.008,4.380079 1.26987,0.648569 z"
       id="path287" />
    <path
       style="opacity:0.415873;fill:#ffffff;fill-opacity:0.997159;stroke:none;stroke-width:0.0553197"
       d="m 700.23214,91.023056 -5.07031,2.927334 v 1.463663 l 6.34018,-3.742428 z"
       id="path288" />
    <path
       style="fill:#1a68b7;fill-opacity:0.480114;stroke:none;stroke-width:0.0556938"
       d="m 685.29539,85.893402 c -0.9189,-0.525223 -2.84873,-1.635883 -4.28837,-2.468127 -1.43971,-0.832251 -3.22488,-1.862676 -3.96698,-2.289842 -0.74216,-0.42716 -1.34935,-0.789193 -1.34922,-0.804507 0,-0.01531 1.14616,-0.683083 2.54676,-1.483917 1.40066,-0.80084 4.23593,-2.424638 6.30073,-3.60844 l 3.75405,-2.152361 2.04458,1.169529 c 2.5378,1.451731 8.56368,4.938714 8.93115,5.168204 l 0.27201,0.169853 -0.49476,0.292715 c -1.61061,0.952874 -11.89504,6.891191 -12.01317,6.936536 -0.0365,0.01392 -0.81781,-0.404421 -1.73678,-0.929643 z"
       id="path289" />
    <path
       style="opacity:0.415873;fill:#ffffff;fill-opacity:1;stroke:none;stroke-width:0.0556938"
       d="m 683.29583,102.27216 c -1.31415,-0.76172 -2.41079,-1.40632 -2.43685,-1.43243 -0.0477,-0.0477 0.99031,-0.6818 1.11593,-0.6818 0.0365,0 0.90499,0.48245 1.9293,1.07211 l 1.86247,1.07211 v 0.68225 c 0,0.37523 -0.0179,0.6801 -0.0404,0.67748 -0.0232,-0.003 -1.11699,-0.628 -2.43121,-1.38972 z"
       id="path290" />
    <path
       style="fill:#5079c0;fill-opacity:0.913725;stroke:none;stroke-width:0.0553197"
       d="m 664.21118,95.699887 22.83882,13.140383 22.79381,-13.140383 -7.60547,-4.391004 0.0166,4.387942 -15.2653,8.733815 -1.22956,-0.68059 v -1.46367 l -3.8027,-2.1955 -1.26762,0.73184 -8.90497,-5.170571 v -4.346328 z"
       id="path291" />
    <path
       style="fill:#9db5dc;fill-opacity:1;stroke:none;stroke-width:0.0553197"
       d="m 664.21781,95.69943 v 1.463664 l 22.81635,13.172996 v -1.46367 L 664.21781,95.69943"
       id="path292" />
    <path
       style="fill:#262862;fill-opacity:0.847059;stroke:none;stroke-width:0.0553197"
       d="m 687.03416,110.33609 22.80965,-12.809684 0.007,-1.826976 -22.81628,13.17299 z"
       id="path293" />
    <path
       style="opacity:0.415873;fill:#262862;fill-opacity:0.847059;stroke:none;stroke-width:0.0553197"
       d="m 681.97359,98.624158 3.79296,2.198102 v 1.46367 l -3.80934,-2.19505 z"
       id="path294" />
    <path
       id="path295"
       style="fill:#a30104;fill-opacity:0.994318;stroke:none;stroke-width:0.0553197;stroke-opacity:1"
       d="m 680.98435,75.06798 a 6.8438251,2.0466301 34.595413 0 0 -5.75222,-1.030371 6.8438251,2.0466301 34.595413 0 0 0.0404,0.286206 l -2.18181,-1.311227 v 4.362484 l 15.2474,9.098411 v -4.296528 l -1.64157,-0.986525 a 6.8438251,2.0466301 34.595413 0 0 0.0378,-0.222205 6.8438251,2.0466301 34.595413 0 0 -5.75228,-5.900245 z" />
    <path
       id="path296"
       style="fill:#c20010;fill-opacity:0.997159;stroke:none;stroke-width:0.0553197"
       d="m 679.7168,75.799816 a 6.8438251,2.0466301 34.595413 0 0 -5.75228,-1.030372 6.8438251,2.0466301 34.595413 0 0 0.0404,0.286206 l -2.18175,-1.311227 v 4.362484 l 15.24741,9.098404 V 82.90879 l -1.64151,-0.986531 a 6.8438251,2.0466301 34.595413 0 0 0.0378,-0.222205 6.8438251,2.0466301 34.595413 0 0 -5.75229,-5.900238 z" />
    <g
       id="g312"
       transform="matrix(0.05531969,0,0,0.05531969,661.68272,50.325762)">
      <path
         style="opacity:1;fill:#a20104;fill-opacity:1;stroke:none;stroke-width:1;stroke-opacity:1"
         d="M 458.24275,661.54186 476.96294,650.2619 458.96918,639.44899 Z"
         id="path297" />
      <path
         style="opacity:1;fill:#a20104;fill-opacity:1;stroke:none;stroke-width:1;stroke-opacity:1"
         d="m 481.84567,653.43321 -23.57394,8.02505 18.69123,-11.19633 z"
         id="path298" />
      <path
         style="opacity:1;fill:#a20104;fill-opacity:1;stroke:none;stroke-width:1;stroke-opacity:1"
         d="m 206.22228,410.10412 -22.91359,13.22917 22.91359,13.22916 z"
         id="path299" />
      <path
         style="opacity:1;fill:#000000;fill-opacity:0;stroke:none;stroke-width:0.0114755;stroke-opacity:1"
         d="m 199.93766,433.3178 c -3.4524,-2.07527 -6.28375,-3.77726 -6.29189,-3.7822 -0.0108,-0.007 -0.0139,-0.0389 -0.0115,-0.12041 l 0.003,-0.11143 6.28284,3.62728 c 3.45556,1.99501 6.28681,3.63116 6.29166,3.6359 0.005,0.005 0.007,0.1246 0.006,0.26635 l -0.003,0.25772 z"
         id="path300"
         transform="scale(1.0000013)" />
      <path
         style="opacity:1;fill:#000000;fill-opacity:0;stroke:none;stroke-width:0.0114755;stroke-opacity:1"
         d="m 199.91794,432.91567 -6.28534,-3.62864 -3.6e-4,-1.54632 -3.7e-4,-1.54633 h 6.29431 6.29432 v 5.17545 c 0,2.8465 -0.004,5.17524 -0.009,5.17497 -0.005,-2.7e-4 -2.83701,-1.63338 -6.29395,-3.62913 z"
         id="path301"
         transform="scale(1.0000013)" />
      <path
         style="opacity:1;fill:#000000;fill-opacity:0;stroke:none;stroke-width:0.0114755;stroke-opacity:1"
         d="m 199.91794,432.91567 -6.28534,-3.62864 -3.6e-4,-1.54632 -3.7e-4,-1.54633 h 6.29431 6.29432 v 5.17545 c 0,2.8465 -0.004,5.17524 -0.009,5.17497 -0.005,-2.7e-4 -2.83701,-1.63338 -6.29395,-3.62913 z"
         id="path302"
         transform="scale(1.0000013)" />
      <path
         style="opacity:1;fill:#000000;fill-opacity:0;stroke:none;stroke-width:0.0114755;stroke-opacity:1"
         d="m 199.91794,432.91567 -6.28534,-3.62864 -3.6e-4,-1.54632 -3.7e-4,-1.54633 h 6.29431 6.29432 v 5.17545 c 0,2.8465 -0.004,5.17524 -0.009,5.17497 -0.005,-2.7e-4 -2.83701,-1.63338 -6.29395,-3.62913 z"
         id="path303"
         transform="scale(1.0000013)" />
      <path
         style="opacity:1;fill:#000000;fill-opacity:0;stroke:none;stroke-width:0.0317899;stroke-opacity:1"
         d="m 194.79266,429.9416 c -6.26817,-3.61924 -11.4003,-6.5911 -11.40473,-6.60413 -0.004,-0.013 2.64916,-1.55781 5.89688,-3.43284 l 5.90494,-3.40914 h 5.50774 5.50775 v 10.01382 c 0,5.5076 -0.004,10.01357 -0.008,10.01327 -0.004,-3e-4 -5.13645,-2.96175 -11.40463,-6.58098 z"
         id="path304"
         transform="scale(1.0000013)" />
      <path
         style="opacity:1;fill:#000000;fill-opacity:0;stroke:none;stroke-width:0.0291383;stroke-opacity:1"
         d="m 194.77625,429.93445 c -6.25746,-3.61344 -11.38637,-6.57965 -11.39757,-6.59159 -0.0112,-0.0119 1.45157,-0.87072 3.2506,-1.90841 l 3.27098,-1.8867 h 8.14844 8.14845 v 8.47924 c 0,4.66359 -0.01,8.47882 -0.0219,8.47829 -0.012,-5.2e-4 -5.1416,-2.9574 -11.39905,-6.57083 z"
         id="path305"
         transform="scale(1.0000013)" />
      <path
         style="opacity:1;fill:#7c0505;fill-opacity:1;stroke:none;stroke-width:1;stroke-opacity:1"
         d="m 205.75984,436.81797 0.45221,-0.25044 0.003,0.52407 z"
         id="path306" />
      <path
         style="opacity:1;fill:#7c0505;fill-opacity:1;stroke:none;stroke-width:0.126555;stroke-opacity:1"
         d="m 358.11927,452.91719 c -0.26692,-0.2272 0.30958,-0.56261 49.93322,-29.05163 l 50.20326,-28.82178 0.0381,0.77287 c 0.0209,0.42508 0.008,0.80246 -0.0277,0.83862 -0.0362,0.0362 -0.21258,-0.0305 -0.39206,-0.14806 -0.32301,-0.21164 -0.34578,-0.20265 -2.2503,0.88839 -1.05819,0.6062 -23.28015,13.37401 -49.38212,28.37291 -26.10198,14.9989 -47.54683,27.29498 -47.65523,27.32463 -0.1084,0.0297 -0.31862,-0.0495 -0.46714,-0.17595 z"
         id="path307"
         transform="scale(1.0000013)" />
      <path
         style="opacity:1;fill:#7c0505;fill-opacity:1;stroke:none;stroke-width:0.126555;stroke-opacity:1"
         d="m 355.36652,451.15577 c -3.06357,-1.94937 -10.58102,-6.45907 -14.21217,-8.52585 -1.62182,-0.92311 -2.93167,-1.69305 -2.91076,-1.71097 0.0535,-0.0458 89.46355,-51.51781 103.43346,-59.54499 6.33407,-3.6396 12.3901,-7.12185 13.45783,-7.73834 1.06774,-0.61649 2.01707,-1.1209 2.10963,-1.1209 0.0926,0 0.25993,0.27589 0.37193,0.61308 0.46677,1.40533 0.55457,3.12181 0.64187,12.54865 l 0.085,9.17524 -50.25603,28.85454 c -27.64081,15.87 -50.29803,28.86456 -50.34938,28.8768 -0.0514,0.0122 -1.11846,-0.63003 -2.37135,-1.42726 z"
         id="path308"
         transform="scale(1.0000013)" />
      <path
         style="opacity:1;fill:#a30103;fill-opacity:0.996078;stroke:none;stroke-width:0.0483587;stroke-opacity:1"
         d="m 194.75918,429.9099 -11.39384,-6.57808 0.60986,-0.35049 c 0.33541,-0.19277 5.46264,-3.15255 11.39383,-6.57728 l 10.78398,-6.2268 0.0123,6.59327 c 0.007,3.62629 0.007,9.54621 0,13.15536 l -0.0123,6.56209 z"
         id="path309"
         transform="scale(1.0000013)" />
      <path
         style="opacity:1;fill:#a30103;fill-opacity:0.996078;stroke:none;stroke-width:0.0483587;stroke-opacity:1"
         d="m 194.75727,429.9111 -11.39574,-6.57929 0.1691,-0.0967 c 0.093,-0.0532 5.22108,-3.01348 11.39574,-6.57842 l 11.22664,-6.4817 0.0123,6.59441 c 0.007,3.62692 0.007,9.54789 0,13.15771 l -0.0123,6.5633 z"
         id="path310"
         transform="scale(1.0000013)" />
      <path
         style="opacity:1;fill:#a30103;fill-opacity:0.996078;stroke:none;stroke-width:0.0483587;stroke-opacity:1"
         d="m 194.75543,429.912 -11.39758,-6.58019 0.27509,-0.15624 c 0.1513,-0.0859 5.28021,-3.04661 11.39758,-6.57929 l 11.12249,-6.42305 0.0123,6.59528 c 0.007,3.6274 0.007,9.54917 0,13.15948 l -0.0123,6.56421 z"
         id="path311"
         transform="scale(1.0000013)" />
      <path
         style="opacity:1;fill:#a30103;fill-opacity:0.996078;stroke:none;stroke-width:1;stroke-opacity:1"
         d="m 183.30869,423.33329 22.8446,13.15527 -0.39344,0.32943 z"
         id="path312" />
      <text
         xml:space="preserve"
         transform="scale(1.0000013)"
         id="text312"
         style="font-weight:bold;font-size:64px;font-family:STIXSizeOneSym;-inkscape-font-specification:'STIXSizeOneSym Bold';white-space:pre;shape-inside:url(#rect382);display:inline;opacity:1;fill:#710013;fill-opacity:0.996078;stroke:none;stroke-opacity:1" />
    </g>
    <text
       xml:space="preserve"
       style="font-style:normal;font-variant:normal;font-weight:normal;font-stretch:normal;font-size:2.06527px;font-family:'Sansita One';-inkscape-font-specification:'Sansita One, Normal';font-variant-ligatures:normal;font-variant-caps:normal;font-variant-numeric:normal;font-variant-east-asian:normal;fill:#ffffff;fill-opacity:0.996078;stroke:none;stroke-width:0.0553197;stroke-opacity:1"
       x="648.03967"
       y="-210.23921"
       id="text314"
       transform="rotate(24.407799)"><tspan
         sodipodi:role="line"
         id="tspan312"
         style="font-style:normal;font-variant:normal;font-weight:normal;font-stretch:normal;font-size:2.06527px;font-family:'Sansita One';-inkscape-font-specification:'Sansita One, Normal';font-variant-ligatures:normal;font-variant-caps:normal;font-variant-numeric:normal;font-variant-east-asian:normal;fill:#ffffff;fill-opacity:0.996078;stroke-width:0.0553197"
         x="648.03967"
         y="-210.23921">•List </tspan><tspan
         sodipodi:role="line"
         style="font-style:normal;font-variant:normal;font-weight:normal;font-stretch:normal;font-size:2.06527px;font-family:'Sansita One';-inkscape-font-specification:'Sansita One, Normal';font-variant-ligatures:normal;font-variant-caps:normal;font-variant-numeric:normal;font-variant-east-asian:normal;fill:#ffffff;fill-opacity:0.996078;stroke-width:0.0553197"
         x="648.03967"
         y="-207.65762"
         id="tspan313">•Shop </tspan><tspan
         sodipodi:role="line"
         style="font-style:normal;font-variant:normal;font-weight:normal;font-stretch:normal;font-size:2.06527px;font-family:'Sansita One';-inkscape-font-specification:'Sansita One, Normal';font-variant-ligatures:normal;font-variant-caps:normal;font-variant-numeric:normal;font-variant-east-asian:normal;fill:#ffffff;fill-opacity:0.996078;stroke-width:0.0553197"
         x="648.03967"
         y="-205.07603"
         id="tspan314">•$ave</tspan></text>
    <text
       xml:space="preserve"
       transform="matrix(0.05531976,0,0,0.05531976,661.68272,50.325762)"
       id="text315"
       style="font-style:normal;font-variant:normal;font-weight:normal;font-stretch:normal;font-size:37.3333px;font-family:'Sansita One';-inkscape-font-specification:'Sansita One, Normal';font-variant-ligatures:normal;font-variant-caps:normal;font-variant-numeric:normal;font-variant-east-asian:normal;white-space:pre;shape-inside:url(#rect383);display:inline;fill:#00233f;fill-opacity:0;stroke:none;stroke-opacity:1"><tspan
         x="68.740234"
         y="258.62864"
         id="tspan1">LIst</tspan></text>
    <text
       xml:space="preserve"
       transform="matrix(0.21612581,-0.11514661,0.11514661,0.21612581,641.44575,32.022238)"
       id="text316"
       style="font-style:normal;font-variant:normal;font-weight:normal;font-stretch:normal;font-size:37.3333px;font-family:'Sansita One';-inkscape-font-specification:'Sansita One, Normal';font-variant-ligatures:normal;font-variant-caps:normal;font-variant-numeric:normal;font-variant-east-asian:normal;white-space:pre;shape-inside:url(#rect384);display:inline;fill:#090c2d;fill-opacity:0.98913;stroke:none;stroke-opacity:1"><tspan
         x="22.914062"
         y="205.71068"
         id="tspan2">List</tspan></text>
    <text
       xml:space="preserve"
       transform="matrix(0.18440223,0.12010523,-0.09428381,0.26379903,704.91304,9.9568702)"
       id="text317"
       style="font-style:normal;font-variant:normal;font-weight:normal;font-stretch:normal;font-size:37.3333px;font-family:'Sansita One';-inkscape-font-specification:'Sansita One, Normal';font-variant-ligatures:normal;font-variant-caps:normal;font-variant-numeric:normal;font-variant-east-asian:normal;white-space:pre;shape-inside:url(#rect385);display:inline;fill:#090c2d;fill-opacity:0.98913;stroke:none;stroke-opacity:1"><tspan
         x="22.914062"
         y="205.71068"
         id="tspan3">Shop</tspan></text>
    <path
       style="fill:#bc0000;fill-opacity:1;stroke:none;stroke-width:0.0553197"
       d="m 670.42971,78.786191 16.59974,-9.450585 16.45283,9.499557 -16.4039,9.548521 z"
       id="path317" />
    <path
       style="opacity:0.415873;fill:none;stroke-width:0.0553197"
       d="m 674.36003,79.59447 12.67757,-7.322249 12.66054,7.323164 -12.66564,7.326664 z"
       id="path318" />
    <path
       style="opacity:0.415873;fill:#00006c;stroke:none;stroke-width:0.0553197"
       d="m 674.27511,79.582603 12.77204,-7.280384 12.61519,7.280384 -12.6779,7.343139 z"
       id="path319" />
    <path
       style="opacity:0.415873;fill:#a81111;fill-opacity:1;stroke:none;stroke-width:0.0553197"
       d="m 674.25621,79.555496 -1.15796,-0.697694 13.94645,-8.046633 v 1.484447 L 674.27756,79.5772 Z"
       id="path320" />
    <path
       style="fill:#ed4b4b;fill-opacity:1;stroke:none;stroke-width:0.0553197"
       d="m 699.63702,79.547726 1.293,-0.718331 -13.90375,-8.045347 0.0159,1.500517 z"
       id="path321" />
    <path
       style="opacity:0.415873;fill:#000000;fill-opacity:0.752941;stroke:none;stroke-width:0.0553197"
       d="m 686.99266,72.252233 1.33317,0.756106 -12.71456,7.3024 -1.29334,-0.776007 z"
       id="path322" />
    <path
       style="opacity:0.415873;fill:#387cb0;fill-opacity:0.768627;stroke:none;stroke-width:0.0229357"
       d="m 681.27412,83.61656 -5.67817,-3.284467 6.32778,-3.634541 c 3.48032,-1.998996 6.3427,-3.637908 6.36087,-3.642019 0.0179,-0.004 2.57725,1.46084 5.68692,3.255451 4.44144,2.563153 5.64767,3.268736 5.62466,3.290036 -0.0477,0.04435 -12.56308,7.285184 -12.60525,7.292907 -0.0212,0.004 -2.59382,-1.470909 -5.71681,-3.277367 z"
       id="path323" />
    <path
       style="opacity:0.415873;fill:#2b79da;fill-opacity:0.85098;stroke:none;stroke-width:0.0229357"
       d="m 686.86053,86.81505 c -0.063,-0.03613 -0.58942,-0.336595 -1.16969,-0.667655 -1.47273,-0.84024 -2.13209,-1.219986 -5.42433,-3.124122 -2.26892,-1.3123 -3.72056,-2.151738 -4.18926,-2.422556 -0.25424,-0.146895 -0.46068,-0.268525 -0.45876,-0.270282 0,-0.002 0.48349,-0.27888 1.07006,-0.615827 0.58657,-0.336947 1.31421,-0.755031 1.61698,-0.929067 3.30622,-1.900655 9.17459,-5.265895 9.63149,-5.523229 l 0.34247,-0.192903 0.0933,0.04548 c 0.22785,0.111076 6.60317,3.77814 9.53132,5.482372 0.82589,0.480673 1.56852,0.922318 1.63528,0.972437 0.0484,0.03633 0.22951,-0.0723 -3.02289,1.812795 -5.2562,3.046544 -9.5097,5.500113 -9.53257,5.498781 -0.007,-2.65e-4 -0.0603,-0.0301 -0.12338,-0.06623 z"
       id="path324" />
    <path
       style="fill:#2061b1;fill-opacity:0.85098;stroke:none;stroke-width:0.0229357"
       d="m 674.98605,79.92494 c -0.46619,-0.281697 -0.60633,-0.376584 -0.58485,-0.396108 0.0159,-0.01412 2.85098,-1.633827 6.30113,-3.599352 3.45008,-1.965524 6.289,-3.583547 6.30876,-3.595612 0.0272,-0.01664 0.18284,0.06298 0.6465,0.330669 0.33591,0.19393 0.60361,0.359619 0.59492,0.368204 -0.0192,0.01856 -12.63879,7.267351 -12.64741,7.26456 0,-0.0013 -0.28188,-0.168619 -0.61905,-0.372361 z"
       id="path325" />
    <path
       style="fill:#2061b1;fill-opacity:0.85098;stroke:none;stroke-width:0.100352"
       d="m 673.72453,79.181735 -0.52763,-0.32382 6.84978,-3.945341 c 3.76737,-2.169943 6.88366,-3.96338 6.92503,-3.98541 0.0411,-0.02201 0.0752,0.247947 0.0752,0.599943 v 0.640004 l -6.09635,3.501422 c -3.35303,1.925787 -6.23185,3.576931 -6.39739,3.669219 -0.29481,0.16431 -0.31205,0.161062 -0.82868,-0.156017 z"
       id="path326" />
    <path
       style="fill:#dc2f2f;fill-opacity:0.658824;stroke:none;stroke-width:0.0553197"
       d="m 670.40671,78.767721 v 1.502307 l 16.63454,9.578308 -0.009,-1.493198 z"
       id="path327" />
    <path
       style="opacity:0.415873;fill:#b80410;fill-opacity:0.552941;stroke:none;stroke-width:0.0553197"
       d="m 687.01752,89.822812 16.51707,-9.500372 -0.0272,-1.492912 -16.48989,9.513942 z"
       id="path328" />
    <path
       style="fill:#aa6363;fill-opacity:0.497159;stroke:none;stroke-width:0.0553197"
       d="m 671.78463,80.998091 v 14.654058 l 15.20484,8.778491 V 89.778415 Z"
       id="path329" />
    <path
       style="fill:#f6b6b6;fill-opacity:0.505682;stroke:none;stroke-width:0.0553197"
       d="m 702.19425,80.998091 v 14.654058 l -15.20478,8.778491 V 89.778415 Z"
       id="path330" />
    <path
       style="opacity:0.415873;fill:#550f1a;fill-opacity:0.32549;stroke:none;stroke-width:0.0196416"
       d="m 687.05318,89.450299 c 0,-0.187381 -0.007,-0.504519 -0.0126,-0.704761 -0.0119,-0.349563 -0.0113,-0.364075 0.0245,-0.364075 0.0206,0 3.30775,-1.904036 7.30476,-4.231188 3.99701,-2.327159 7.45518,-4.339494 7.68489,-4.471857 l 0.41759,-0.240661 -0.007,0.747819 -0.007,0.747818 -0.19643,0.102425 c -0.108,0.05635 -1.25707,0.714923 -2.55346,1.463524 -2.87299,1.659079 -3.18523,1.839784 -3.4471,1.994952 -0.20743,0.122956 -0.91572,0.530891 -1.08026,0.622225 -0.12821,0.07116 -7.62861,4.382299 -8.04819,4.625977 l -0.0835,0.04846 z"
       id="path331" />
    <path
       style="opacity:0.415873;fill:#550f1a;fill-opacity:0.32549;stroke:none;stroke-width:0.0553197"
       d="m 687.05325,89.620642 -0.009,1.685179 15.21088,-8.782002 v -1.463663 z"
       id="path332" />
    <path
       style="opacity:0.415873;fill:#0084de;fill-opacity:0.963068;stroke:none;stroke-width:0.0553197"
       d="m 685.77636,102.28333 v -8.782004 l -3.80277,-2.195505 v 7.318331 1.463668 z"
       id="path333" />
    <path
       style="opacity:0.415873;fill:#ffffff;fill-opacity:1;stroke:none;stroke-width:0.0553197"
       d="m 681.97359,100.08782 -1.26755,0.73184 5.07032,2.92732 v -1.46365 z"
       id="path334" />
    <path
       style="opacity:0.415873;fill:#3d3d3d;fill-opacity:0.32549;stroke:none;stroke-width:0.0553197"
       d="m 681.97359,91.305821 -1.26755,-0.648683 v 10.162522 l 1.26755,-0.73184 z"
       id="path335" />
    <path
       style="opacity:0.415873;fill:#bc0000;fill-opacity:0.415686;stroke:none;stroke-width:0.0553197"
       d="m 681.97359,100.08782 v -1.463668 l -1.26755,0.731835 v 1.463673 z"
       id="path336" />
    <path
       style="opacity:0.415873;fill:#db2f2f;fill-opacity:0.27451;stroke:none;stroke-width:0.0553197"
       d="m 680.70604,99.355987 -8.87301,-5.122833 -0.0484,1.418995 8.92141,5.167511 z"
       id="path337" />
    <path
       style="opacity:0.415873;fill:#db2f2f;fill-opacity:0.27451;stroke:none;stroke-width:0.0553197"
       d="m 686.98947,104.43064 0.0544,-1.41548 -1.26755,-0.73183 v 1.46365 z"
       id="path338" />
    <path
       style="opacity:0.415873;fill:#a70e20;fill-opacity:0.662745;stroke:none;stroke-width:0.0553197"
       d="m 686.98947,104.43064 15.26531,-8.733815 v -1.463671 l -15.21088,8.782006 z"
       id="path339" />
    <path
       style="fill:#ce000c;fill-opacity:1;stroke:none;stroke-width:0.023327"
       d="m 687.0506,89.113219 c 0,-0.266218 -0.007,-0.510273 -0.007,-0.542353 0,-0.123924 0.008,-0.186612 0.0305,-0.186612 0.0133,0 0.36734,-0.200659 0.78731,-0.445908 0.41991,-0.245255 0.83173,-0.48292 0.91513,-0.528159 0.0834,-0.04521 0.16819,-0.09651 0.18847,-0.11394 0.0199,-0.01743 0.0424,-0.03169 0.0491,-0.03169 0.0166,0 0.41109,-0.227289 0.48554,-0.279523 0.0318,-0.02254 0.0819,-0.04826 0.11078,-0.05721 0.0292,-0.0089 0.0524,-0.02486 0.0524,-0.03533 0,-0.01047 0.0186,-0.02506 0.0411,-0.03242 0.0225,-0.0074 0.0828,-0.03978 0.13412,-0.07206 0.051,-0.03229 0.12801,-0.07442 0.1705,-0.09368 0.0424,-0.01922 0.10893,-0.05761 0.14777,-0.08531 0.0391,-0.02764 0.11436,-0.07328 0.1678,-0.101384 0.0861,-0.04528 0.25079,-0.139808 0.69197,-0.397109 0.0705,-0.04117 0.23323,-0.136049 0.36151,-0.210882 0.12834,-0.07483 0.29368,-0.170979 0.3674,-0.213673 0.0738,-0.04269 0.19451,-0.112965 0.26829,-0.156176 0.0738,-0.04322 0.23913,-0.139198 0.3674,-0.213321 0.12828,-0.07412 0.29104,-0.16846 0.36157,-0.209649 0.0705,-0.04117 0.23329,-0.135525 0.36157,-0.209649 0.12828,-0.07412 0.29103,-0.16844 0.36157,-0.209589 0.0705,-0.04117 0.23322,-0.136056 0.36157,-0.210882 0.12828,-0.07483 0.29362,-0.170986 0.3674,-0.213673 0.19743,-0.114278 0.3739,-0.216841 0.63563,-0.369504 0.12828,-0.07483 0.29362,-0.170986 0.3674,-0.213673 0.0738,-0.04269 0.1971,-0.114357 0.27413,-0.159258 l 0.27989,-0.16329 c 0.077,-0.04488 0.20035,-0.116711 0.27413,-0.159556 0.0737,-0.04289 0.23906,-0.139145 0.3674,-0.213972 0.12828,-0.07483 0.29362,-0.170986 0.36741,-0.213673 0.0737,-0.04269 0.19709,-0.114357 0.27406,-0.159265 0.077,-0.04488 0.20034,-0.116704 0.27406,-0.159557 0.0738,-0.04283 0.23912,-0.139138 0.3674,-0.213971 0.12834,-0.07483 0.29368,-0.170979 0.3674,-0.213673 0.0738,-0.04269 0.19716,-0.114357 0.27413,-0.159258 0.077,-0.04488 0.20027,-0.116711 0.27406,-0.159557 0.0738,-0.04289 0.23912,-0.139139 0.3674,-0.213972 0.12835,-0.07483 0.29362,-0.170986 0.3674,-0.213672 0.0738,-0.04269 0.19716,-0.114358 0.27413,-0.159266 l 0.27989,-0.163289 c 0.077,-0.04488 0.20035,-0.116863 0.27413,-0.159908 0.0738,-0.04303 0.23906,-0.138906 0.36734,-0.213023 0.12834,-0.07412 0.29368,-0.170125 0.3674,-0.213329 0.17289,-0.101218 0.3792,-0.221568 0.54825,-0.319756 0.0737,-0.04283 0.23906,-0.139106 0.36741,-0.213892 0.12827,-0.07479 0.32775,-0.189708 0.44324,-0.255379 l 0.21002,-0.119402 v 0.129181 c 0,0.07105 -0.007,0.402107 -0.007,0.73568 l -0.007,0.606506 -0.24807,0.13996 c -0.13644,0.07698 -0.29097,0.163084 -0.34334,0.191338 -0.0524,0.02824 -0.10574,0.06026 -0.1186,0.07116 -0.0133,0.01087 -0.0438,0.02758 -0.0685,0.03706 -0.0799,0.0305 -0.91055,0.512236 -0.92825,0.538349 -0.009,0.01386 -0.0172,0.0171 -0.0172,0.0072 0,-0.01578 -0.10879,0.04283 -0.14034,0.07581 -0.007,0.0067 -0.0431,0.02963 -0.0817,0.05091 -0.0385,0.02128 -0.18542,0.10436 -0.32656,0.18461 -0.14114,0.08025 -0.32484,0.1826 -0.40818,0.227455 -0.0834,0.04488 -2.97269,1.67019 -6.42066,3.611855 -3.44789,1.941665 -6.27428,3.530299 -6.28078,3.530299 -0.007,0 -0.0133,-0.217816 -0.0146,-0.484027 z"
       id="path340" />
    <path
       style="opacity:0.415873;fill:#b9030f;fill-opacity:0.611765;stroke:none;stroke-width:0.0553197"
       d="m 702.46109,79.459926 1.02119,-0.624763 0.0524,1.487277 -1.08682,0.608853 z"
       id="path341" />
    <path
       style="opacity:0.415873;fill:#3f90c8;fill-opacity:0.65098;stroke:none;stroke-width:0.0553197"
       d="m 679.38705,89.822812 -6.28641,-3.639824 v 5.771402 l 6.34018,3.742435 z"
       id="path342" />
    <path
       style="opacity:0.415873;fill:#493739;fill-opacity:0.494118;stroke:none;stroke-width:0.0553197"
       d="m 673.10064,86.182988 1.25939,0.742754 0.008,4.380079 -1.26986,0.648569 z"
       id="path343" />
    <path
       style="opacity:0.415873;fill:#ffffff;fill-opacity:0.997159;stroke:none;stroke-width:0.0553197"
       d="m 674.36818,91.305821 5.07032,2.927333 v 1.463671 l -6.34025,-3.742435 z"
       id="path344" />
    <path
       style="opacity:0.415873;fill:#3f90c8;fill-opacity:0.65098;stroke:none;stroke-width:0.0553197"
       d="m 688.36289,93.481975 6.28648,-3.639825 v 5.771402 l -6.34018,3.742435 z"
       id="path345" />
    <path
       style="opacity:0.415873;fill:#493739;fill-opacity:0.494118;stroke:none;stroke-width:0.0553197"
       d="m 694.64937,89.84215 -1.25945,0.742754 -0.008,4.380086 1.26987,0.648562 z"
       id="path346" />
    <path
       style="opacity:0.415873;fill:#ffffff;fill-opacity:0.997159;stroke:none;stroke-width:0.0553197"
       d="m 693.38176,94.96499 -5.07031,2.927327 v 1.46367 l 6.34024,-3.742435 z"
       id="path347" />
    <path
       style="opacity:0.415873;fill:#3f90c8;fill-opacity:0.65098;stroke:none;stroke-width:0.0553197"
       d="m 695.21321,89.540048 6.28648,-3.639825 v 5.771402 l -6.34025,3.742428 z"
       id="path348" />
    <path
       style="opacity:0.415873;fill:#493739;fill-opacity:0.494118;stroke:none;stroke-width:0.0553197"
       d="m 701.49969,85.900223 -1.25939,0.742754 -0.008,4.380079 1.26987,0.648569 z"
       id="path349" />
    <path
       style="opacity:0.415873;fill:#ffffff;fill-opacity:0.997159;stroke:none;stroke-width:0.0553197"
       d="m 700.23214,91.023056 -5.07031,2.927334 v 1.463663 l 6.34018,-3.742428 z"
       id="path350" />
    <path
       style="fill:#1a68b7;fill-opacity:0.480114;stroke:none;stroke-width:0.0556938"
       d="m 685.29539,85.893402 c -0.9189,-0.525223 -2.84873,-1.635883 -4.28837,-2.468127 -1.43971,-0.832251 -3.22488,-1.862676 -3.96698,-2.289842 -0.74216,-0.42716 -1.34935,-0.789193 -1.34922,-0.804507 0,-0.01531 1.14616,-0.683083 2.54676,-1.483917 1.40066,-0.80084 4.23593,-2.424638 6.30073,-3.60844 l 3.75405,-2.152361 2.04458,1.169529 c 2.5378,1.451731 8.56368,4.938714 8.93115,5.168204 l 0.27201,0.169853 -0.49476,0.292715 c -1.61061,0.952874 -11.89504,6.891191 -12.01317,6.936536 -0.0365,0.01392 -0.81781,-0.404421 -1.73678,-0.929643 z"
       id="path351" />
    <path
       style="opacity:0.415873;fill:#ffffff;fill-opacity:1;stroke:none;stroke-width:0.0556938"
       d="m 683.29583,102.27216 c -1.31415,-0.76172 -2.41079,-1.40632 -2.43685,-1.43243 -0.0477,-0.0477 0.99031,-0.6818 1.11593,-0.6818 0.0365,0 0.90499,0.48245 1.9293,1.07211 l 1.86247,1.07211 v 0.68225 c 0,0.37523 -0.0179,0.6801 -0.0404,0.67748 -0.0232,-0.003 -1.11699,-0.628 -2.43121,-1.38972 z"
       id="path352" />
    <path
       style="fill:#5079c0;fill-opacity:0.913725;stroke:none;stroke-width:0.0553197"
       d="m 664.21118,95.699887 22.83882,13.140383 22.79381,-13.140383 -7.60547,-4.391004 0.0166,4.387942 -15.2653,8.733815 -1.22956,-0.68059 v -1.46367 l -3.8027,-2.1955 -1.26762,0.73184 -8.90497,-5.170571 v -4.346328 z"
       id="path353" />
    <path
       style="fill:#9db5dc;fill-opacity:1;stroke:none;stroke-width:0.0553197"
       d="m 664.21781,95.69943 v 1.463664 l 22.81635,13.172996 v -1.46367 L 664.21781,95.69943"
       id="path354" />
    <path
       style="fill:#262862;fill-opacity:0.847059;stroke:none;stroke-width:0.0553197"
       d="m 687.03416,110.33609 22.80965,-12.809684 0.007,-1.826976 -22.81628,13.17299 z"
       id="path355" />
    <path
       style="opacity:0.415873;fill:#262862;fill-opacity:0.847059;stroke:none;stroke-width:0.0553197"
       d="m 681.97359,98.624158 3.79296,2.198102 v 1.46367 l -3.80934,-2.19505 z"
       id="path356" />
    <path
       id="path357"
       style="fill:#a30104;fill-opacity:0.994318;stroke:none;stroke-width:0.0553197;stroke-opacity:1"
       d="m 680.98435,75.06798 a 6.8438251,2.0466301 34.595413 0 0 -5.75222,-1.030371 6.8438251,2.0466301 34.595413 0 0 0.0404,0.286206 l -2.18181,-1.311227 v 4.362484 l 15.2474,9.098411 v -4.296528 l -1.64157,-0.986525 a 6.8438251,2.0466301 34.595413 0 0 0.0378,-0.222205 6.8438251,2.0466301 34.595413 0 0 -5.75228,-5.900245 z" />
    <path
       id="path358"
       style="fill:#c20010;fill-opacity:0.997159;stroke:none;stroke-width:0.0553197"
       d="m 679.7168,75.799816 a 6.8438251,2.0466301 34.595413 0 0 -5.75228,-1.030372 6.8438251,2.0466301 34.595413 0 0 0.0404,0.286206 l -2.18175,-1.311227 v 4.362484 l 15.24741,9.098404 V 82.90879 l -1.64151,-0.986531 a 6.8438251,2.0466301 34.595413 0 0 0.0378,-0.222205 6.8438251,2.0466301 34.595413 0 0 -5.75229,-5.900238 z" />
    <g
       id="g374"
       transform="matrix(0.05531969,0,0,0.05531969,661.68272,50.325762)">
      <path
         style="opacity:1;fill:#a20104;fill-opacity:1;stroke:none;stroke-width:1;stroke-opacity:1"
         d="M 458.24275,661.54186 476.96294,650.2619 458.96918,639.44899 Z"
         id="path359" />
      <path
         style="opacity:1;fill:#a20104;fill-opacity:1;stroke:none;stroke-width:1;stroke-opacity:1"
         d="m 481.84567,653.43321 -23.57394,8.02505 18.69123,-11.19633 z"
         id="path360" />
      <path
         style="opacity:1;fill:#a20104;fill-opacity:1;stroke:none;stroke-width:1;stroke-opacity:1"
         d="m 206.22228,410.10412 -22.91359,13.22917 22.91359,13.22916 z"
         id="path361" />
      <path
         style="opacity:1;fill:#000000;fill-opacity:0;stroke:none;stroke-width:0.0114755;stroke-opacity:1"
         d="m 199.93766,433.3178 c -3.4524,-2.07527 -6.28375,-3.77726 -6.29189,-3.7822 -0.0108,-0.007 -0.0139,-0.0389 -0.0115,-0.12041 l 0.003,-0.11143 6.28284,3.62728 c 3.45556,1.99501 6.28681,3.63116 6.29166,3.6359 0.005,0.005 0.007,0.1246 0.006,0.26635 l -0.003,0.25772 z"
         id="path362"
         transform="scale(1.0000013)" />
      <path
         style="opacity:1;fill:#000000;fill-opacity:0;stroke:none;stroke-width:0.0114755;stroke-opacity:1"
         d="m 199.91794,432.91567 -6.28534,-3.62864 -3.6e-4,-1.54632 -3.7e-4,-1.54633 h 6.29431 6.29432 v 5.17545 c 0,2.8465 -0.004,5.17524 -0.009,5.17497 -0.005,-2.7e-4 -2.83701,-1.63338 -6.29395,-3.62913 z"
         id="path363"
         transform="scale(1.0000013)" />
      <path
         style="opacity:1;fill:#000000;fill-opacity:0;stroke:none;stroke-width:0.0114755;stroke-opacity:1"
         d="m 199.91794,432.91567 -6.28534,-3.62864 -3.6e-4,-1.54632 -3.7e-4,-1.54633 h 6.29431 6.29432 v 5.17545 c 0,2.8465 -0.004,5.17524 -0.009,5.17497 -0.005,-2.7e-4 -2.83701,-1.63338 -6.29395,-3.62913 z"
         id="path364"
         transform="scale(1.0000013)" />
      <path
         style="opacity:1;fill:#000000;fill-opacity:0;stroke:none;stroke-width:0.0114755;stroke-opacity:1"
         d="m 199.91794,432.91567 -6.28534,-3.62864 -3.6e-4,-1.54632 -3.7e-4,-1.54633 h 6.29431 6.29432 v 5.17545 c 0,2.8465 -0.004,5.17524 -0.009,5.17497 -0.005,-2.7e-4 -2.83701,-1.63338 -6.29395,-3.62913 z"
         id="path365"
         transform="scale(1.0000013)" />
      <path
         style="opacity:1;fill:#000000;fill-opacity:0;stroke:none;stroke-width:0.0317899;stroke-opacity:1"
         d="m 194.79266,429.9416 c -6.26817,-3.61924 -11.4003,-6.5911 -11.40473,-6.60413 -0.004,-0.013 2.64916,-1.55781 5.89688,-3.43284 l 5.90494,-3.40914 h 5.50774 5.50775 v 10.01382 c 0,5.5076 -0.004,10.01357 -0.008,10.01327 -0.004,-3e-4 -5.13645,-2.96175 -11.40463,-6.58098 z"
         id="path366"
         transform="scale(1.0000013)" />
      <path
         style="opacity:1;fill:#000000;fill-opacity:0;stroke:none;stroke-width:0.0291383;stroke-opacity:1"
         d="m 194.77625,429.93445 c -6.25746,-3.61344 -11.38637,-6.57965 -11.39757,-6.59159 -0.0112,-0.0119 1.45157,-0.87072 3.2506,-1.90841 l 3.27098,-1.8867 h 8.14844 8.14845 v 8.47924 c 0,4.66359 -0.01,8.47882 -0.0219,8.47829 -0.012,-5.2e-4 -5.1416,-2.9574 -11.39905,-6.57083 z"
         id="path367"
         transform="scale(1.0000013)" />
      <path
         style="opacity:1;fill:#7c0505;fill-opacity:1;stroke:none;stroke-width:1;stroke-opacity:1"
         d="m 205.75984,436.81797 0.45221,-0.25044 0.003,0.52407 z"
         id="path368" />
      <path
         style="opacity:1;fill:#7c0505;fill-opacity:1;stroke:none;stroke-width:0.126555;stroke-opacity:1"
         d="m 358.11927,452.91719 c -0.26692,-0.2272 0.30958,-0.56261 49.93322,-29.05163 l 50.20326,-28.82178 0.0381,0.77287 c 0.0209,0.42508 0.008,0.80246 -0.0277,0.83862 -0.0362,0.0362 -0.21258,-0.0305 -0.39206,-0.14806 -0.32301,-0.21164 -0.34578,-0.20265 -2.2503,0.88839 -1.05819,0.6062 -23.28015,13.37401 -49.38212,28.37291 -26.10198,14.9989 -47.54683,27.29498 -47.65523,27.32463 -0.1084,0.0297 -0.31862,-0.0495 -0.46714,-0.17595 z"
         id="path369"
         transform="scale(1.0000013)" />
      <path
         style="opacity:1;fill:#7c0505;fill-opacity:1;stroke:none;stroke-width:0.126555;stroke-opacity:1"
         d="m 355.36652,451.15577 c -3.06357,-1.94937 -10.58102,-6.45907 -14.21217,-8.52585 -1.62182,-0.92311 -2.93167,-1.69305 -2.91076,-1.71097 0.0535,-0.0458 89.46355,-51.51781 103.43346,-59.54499 6.33407,-3.6396 12.3901,-7.12185 13.45783,-7.73834 1.06774,-0.61649 2.01707,-1.1209 2.10963,-1.1209 0.0926,0 0.25993,0.27589 0.37193,0.61308 0.46677,1.40533 0.55457,3.12181 0.64187,12.54865 l 0.085,9.17524 -50.25603,28.85454 c -27.64081,15.87 -50.29803,28.86456 -50.34938,28.8768 -0.0514,0.0122 -1.11846,-0.63003 -2.37135,-1.42726 z"
         id="path370"
         transform="scale(1.0000013)" />
      <path
         style="opacity:1;fill:#a30103;fill-opacity:0.996078;stroke:none;stroke-width:0.0483587;stroke-opacity:1"
         d="m 194.75918,429.9099 -11.39384,-6.57808 0.60986,-0.35049 c 0.33541,-0.19277 5.46264,-3.15255 11.39383,-6.57728 l 10.78398,-6.2268 0.0123,6.59327 c 0.007,3.62629 0.007,9.54621 0,13.15536 l -0.0123,6.56209 z"
         id="path371"
         transform="scale(1.0000013)" />
      <path
         style="opacity:1;fill:#a30103;fill-opacity:0.996078;stroke:none;stroke-width:0.0483587;stroke-opacity:1"
         d="m 194.75727,429.9111 -11.39574,-6.57929 0.1691,-0.0967 c 0.093,-0.0532 5.22108,-3.01348 11.39574,-6.57842 l 11.22664,-6.4817 0.0123,6.59441 c 0.007,3.62692 0.007,9.54789 0,13.15771 l -0.0123,6.5633 z"
         id="path372"
         transform="scale(1.0000013)" />
      <path
         style="opacity:1;fill:#a30103;fill-opacity:0.996078;stroke:none;stroke-width:0.0483587;stroke-opacity:1"
         d="m 194.75543,429.912 -11.39758,-6.58019 0.27509,-0.15624 c 0.1513,-0.0859 5.28021,-3.04661 11.39758,-6.57929 l 11.12249,-6.42305 0.0123,6.59528 c 0.007,3.6274 0.007,9.54917 0,13.15948 l -0.0123,6.56421 z"
         id="path373"
         transform="scale(1.0000013)" />
      <path
         style="opacity:1;fill:#a30103;fill-opacity:0.996078;stroke:none;stroke-width:1;stroke-opacity:1"
         d="m 183.30869,423.33329 22.8446,13.15527 -0.39344,0.32943 z"
         id="path374" />
      <text
         xml:space="preserve"
         transform="scale(1.0000013)"
         id="text374"
         style="font-weight:bold;font-size:64px;font-family:STIXSizeOneSym;-inkscape-font-specification:'STIXSizeOneSym Bold';white-space:pre;shape-inside:url(#rect386);display:inline;opacity:1;fill:#710013;fill-opacity:0.996078;stroke:none;stroke-opacity:1" />
    </g>
    <text
       xml:space="preserve"
       style="font-style:normal;font-variant:normal;font-weight:normal;font-stretch:normal;font-size:2.06527px;font-family:'Sansita One';-inkscape-font-specification:'Sansita One, Normal';font-variant-ligatures:normal;font-variant-caps:normal;font-variant-numeric:normal;font-variant-east-asian:normal;fill:#ffffff;fill-opacity:0.996078;stroke:none;stroke-width:0.0553197;stroke-opacity:1"
       x="648.03967"
       y="-210.23921"
       id="text376"
       transform="rotate(24.407799)"><tspan
         sodipodi:role="line"
         id="tspan374"
         style="font-style:normal;font-variant:normal;font-weight:normal;font-stretch:normal;font-size:2.06527px;font-family:'Sansita One';-inkscape-font-specification:'Sansita One, Normal';font-variant-ligatures:normal;font-variant-caps:normal;font-variant-numeric:normal;font-variant-east-asian:normal;fill:#ffffff;fill-opacity:0.996078;stroke-width:0.0553197"
         x="648.03967"
         y="-210.23921">•List </tspan><tspan
         sodipodi:role="line"
         style="font-style:normal;font-variant:normal;font-weight:normal;font-stretch:normal;font-size:2.06527px;font-family:'Sansita One';-inkscape-font-specification:'Sansita One, Normal';font-variant-ligatures:normal;font-variant-caps:normal;font-variant-numeric:normal;font-variant-east-asian:normal;fill:#ffffff;fill-opacity:0.996078;stroke-width:0.0553197"
         x="648.03967"
         y="-207.65762"
         id="tspan375">•Shop </tspan><tspan
         sodipodi:role="line"
         style="font-style:normal;font-variant:normal;font-weight:normal;font-stretch:normal;font-size:2.06527px;font-family:'Sansita One';-inkscape-font-specification:'Sansita One, Normal';font-variant-ligatures:normal;font-variant-caps:normal;font-variant-numeric:normal;font-variant-east-asian:normal;fill:#ffffff;fill-opacity:0.996078;stroke-width:0.0553197"
         x="648.03967"
         y="-205.07603"
         id="tspan376">•$ave</tspan></text>
    <text
       xml:space="preserve"
       transform="matrix(0.05531976,0,0,0.05531976,661.68272,50.325762)"
       id="text377"
       style="font-style:normal;font-variant:normal;font-weight:normal;font-stretch:normal;font-size:37.3333px;font-family:'Sansita One';-inkscape-font-specification:'Sansita One, Normal';font-variant-ligatures:normal;font-variant-caps:normal;font-variant-numeric:normal;font-variant-east-asian:normal;white-space:pre;shape-inside:url(#rect387);display:inline;fill:#00233f;fill-opacity:0;stroke:none;stroke-opacity:1"><tspan
         x="68.740234"
         y="258.62864"
         id="tspan4">LIst</tspan></text>
    <text
       xml:space="preserve"
       id="text378"
       style="font-style:normal;font-variant:normal;font-weight:normal;font-stretch:normal;font-size:9.14244px;font-family:'Sansita One';-inkscape-font-specification:'Sansita One, Normal';font-variant-ligatures:normal;font-variant-caps:normal;font-variant-numeric:normal;font-variant-east-asian:normal;white-space:pre;opacity:1;fill:#090c2d;fill-opacity:0.98913;stroke:none;stroke-width:0.0553197;stroke-opacity:1"
       x="673.63037"
       y="116.34886"><tspan
         id="tspan378"
         style="stroke-width:0.0553197">S a v e</tspan></text>
    <path
       style="fill:#ce8e91;fill-opacity:0.815686;stroke-width:0.0553197"
       d="m 686.98947,89.81552 0.0517,0.03282 0.0106,0.0066 -0.0623,14.57578 z"
       id="path378" />
    <path
       style="fill:#f3b4b4;fill-opacity:0.521569;stroke-width:0.0553197"
       d="m 686.98947,104.43064 0.0603,-13.128399 -0.007,0.0033 z"
       id="path379" />
    <path
       style="fill:#ce000c;fill-opacity:1;stroke-width:0.0553197"
       d="m 687.07718,88.384254 -0.0252,1.470618 -0.0106,-0.0066 -0.009,-1.493198 z"
       id="path380" />
    <path
       style="fill:#ce000c;fill-opacity:1;stroke-width:0.0553197"
       d="m 703.46359,78.846035 -16.38521,9.537649 16.4039,-9.548521"
       id="path381" />
    <path
       style="fill:#000000;fill-opacity:0;stroke-width:0.0553197"
       d="m 703.46359,78.846041 -15.12536,8.793623 15.12536,-8.793623 -5.4173,3.177588"
       id="path382" />
  </g>
</svg>
